<?xml version="1.0" encoding="utf-8"?>
<!-- Generator: Adobe Illustrator 19.0.0, SVG Export Plug-In . SVG Version: 6.00 Build 0)  -->
<svg version="1.1" id="Layer_1" xmlns="http://www.w3.org/2000/svg" xmlns:xlink="http://www.w3.org/1999/xlink" x="0px" y="0px"
	 viewBox="0 0 25.5 47.3" style="enable-background:new 0 0 25.5 47.3;" xml:space="preserve">
<style type="text/css">
	.st0{fill:#363E98;}
	.st1{fill:none;stroke:#363E98;stroke-miterlimit:10;}
</style>
<g id="XMLID_2_">
	<g id="_x23_020201ff_5_">
		<path id="XMLID_23_" class="st0" d="M13.5,18.7c0.7-0.7,1.8-0.9,2.8-1c1.1,0,2.1,0,3.2,0c0,1.1,0,2.2,0,3.3c-0.7,0-1.4,0-2,0
			c-0.4,0-0.9,0.3-1,0.7c0,0.7,0,1.5,0,2.2c1,0,2,0,3,0c-0.1,1.1-0.2,2.2-0.4,3.2c-0.9,0-1.8,0-2.7,0c0,3.2,0,6.4,0,9.5
			c-1.3,0-2.6,0-3.9,0c0-3.2,0-6.4,0-9.5c-0.6,0-1.3,0-1.9,0c0-1.1,0-2.1,0-3.2c0.6,0,1.3,0,1.9,0c0-1,0-2.1,0-3.1
			C12.6,20.1,12.9,19.3,13.5,18.7z"/>
	</g>
	<g id="XMLID_17_">
		<path id="XMLID_19_" class="st0" d="M-49.3,29c-0.4-0.2-0.8-0.3-1.2-0.3c-0.3,0-0.8,0-1.4-0.1c-0.7,0-1.2-0.1-1.6-0.1
			c-0.4,0-0.7,0-1,0c-0.3,0-0.6-0.1-0.9-0.1c-0.3-0.1-0.5-0.2-0.7-0.3c-0.2-0.2-0.3-0.4-0.3-0.7c0-0.3,0.1-0.6,0.3-0.7
			c0.2-0.2,0.4-0.3,0.6-0.4h1.6c1.2,0,2.3-0.4,3.2-1.2c0.9-0.8,1.4-1.7,1.4-2.9c0-0.4-0.1-0.9-0.2-1.3c-0.2-0.5-0.4-0.9-0.7-1.2
			v-0.1h3v-1.3h-4.5c-0.4-0.1-0.8-0.2-1.2-0.3s-0.8-0.1-1.2-0.1c-1.4,0-2.6,0.4-3.5,1.2c-0.9,0.8-1.4,1.8-1.4,3
			c0,0.8,0.2,1.5,0.7,2.1c0.5,0.6,1.1,1.1,2,1.5v0.2c-0.7,0.3-1.2,0.6-1.5,1c-0.3,0.4-0.5,0.8-0.5,1.3c0,0.4,0.1,0.7,0.2,0.9
			c0.1,0.2,0.3,0.5,0.5,0.6c0.2,0.2,0.4,0.3,0.7,0.4c0.3,0.1,0.5,0.2,0.8,0.3v0.2c-1.1,0-2,0.3-2.7,0.8c-0.7,0.5-1,1.2-1,2.1
			c0,1.1,0.5,1.9,1.5,2.5c1,0.6,2.4,0.9,4.4,0.9c1.2,0,2.2-0.1,3-0.3c0.8-0.2,1.5-0.5,2.1-1c0.5-0.4,1-0.9,1.2-1.4
			c0.3-0.5,0.4-1.1,0.4-1.7s-0.1-1.1-0.3-1.6c-0.2-0.4-0.5-0.8-0.8-1.1C-48.5,29.4-48.9,29.1-49.3,29z M-52.3,24.3
			c-0.4,0.6-1,0.9-1.7,0.9c-0.7,0-1.2-0.3-1.6-0.9c-0.4-0.6-0.6-1.4-0.6-2.4c0-0.4,0-0.8,0.1-1.3c0.1-0.4,0.2-0.8,0.4-1
			c0.2-0.3,0.4-0.6,0.7-0.7c0.3-0.2,0.6-0.3,1.1-0.3c0.8,0,1.3,0.3,1.7,0.9c0.4,0.6,0.6,1.4,0.6,2.4C-51.7,22.9-51.9,23.7-52.3,24.3
			z M-50.3,35.1c-0.7,0.5-1.7,0.7-3,0.7c-0.7,0-1.4-0.1-1.9-0.2c-0.5-0.1-0.9-0.3-1.2-0.6c-0.3-0.2-0.5-0.5-0.7-0.8
			c-0.1-0.3-0.2-0.6-0.2-0.9c0-0.7,0.2-1.2,0.6-1.7c0.4-0.4,1.1-0.7,2-0.9c1,0,1.9,0,2.6,0.1c0.8,0,1.3,0.1,1.5,0.1
			c0.5,0.1,0.8,0.3,1,0.6c0.2,0.3,0.3,0.7,0.3,1.2C-49.2,33.8-49.6,34.6-50.3,35.1z"/>
		<path id="XMLID_18_" class="st0" d="M-44.2,22v2.6h1V22h2.5v-1h-2.5v-2.6h-1V21h-2.5v1H-44.2L-44.2,22z"/>
	</g>
	<path id="XMLID_5_" class="st0" d="M82.7,33.8v-2.5c0-0.5-0.2-0.8-0.5-0.8c-0.2,0-0.4,0.1-0.5,0.3v3.5c0.2,0.2,0.3,0.3,0.5,0.3
		C82.5,34.6,82.7,34.3,82.7,33.8L82.7,33.8z M85.6,31.9h1v-0.5c0-0.5-0.2-0.8-0.5-0.8s-0.5,0.3-0.5,0.8V31.9z M76.6,27.7v1.1h-1.3
		v6.7h-1.2v-6.7h-1.2v-1.1H76.6L76.6,27.7z M79.7,29.7v5.8h-1.1v-0.6c-0.4,0.5-0.8,0.7-1.2,0.7c-0.3,0-0.6-0.1-0.7-0.4
		c-0.1-0.2-0.1-0.5-0.1-0.9v-4.6h1V34c0,0.3,0,0.4,0,0.4c0,0.2,0.1,0.2,0.2,0.2c0.2,0,0.4-0.2,0.7-0.5v-4.4H79.7L79.7,29.7z
		 M83.7,31.4v2.3c0,0.5,0,0.9-0.1,1.2c-0.1,0.4-0.4,0.7-0.8,0.7c-0.4,0-0.7-0.2-1.1-0.6v0.6h-1.1v-7.8h1.1v2.5
		c0.3-0.4,0.7-0.6,1.1-0.6c0.4,0,0.7,0.2,0.8,0.7C83.7,30.5,83.7,30.9,83.7,31.4z M87.7,33.5v0.1c0,0.3,0,0.5,0,0.7
		c0,0.2-0.1,0.4-0.2,0.6c-0.3,0.4-0.7,0.6-1.3,0.6c-0.5,0-1-0.2-1.3-0.6c-0.2-0.3-0.3-0.7-0.3-1.4v-2c0-0.6,0.1-1.1,0.3-1.4
		c0.3-0.4,0.7-0.6,1.3-0.6c0.5,0,0.9,0.2,1.2,0.6c0.2,0.3,0.3,0.7,0.3,1.4v1.2h-2.1v1c0,0.5,0.2,0.8,0.5,0.8c0.3,0,0.4-0.1,0.5-0.4
		c0,0,0,0,0-0.1c0-0.1,0-0.1,0-0.3v-0.3L87.7,33.5L87.7,33.5z M80.5,20.5v2.5c0,0.5-0.2,0.8-0.5,0.8c-0.3,0-0.5-0.3-0.5-0.8v-2.5
		c0-0.5,0.2-0.8,0.5-0.8C80.4,19.7,80.5,19.9,80.5,20.5z M89,31.7c0-1.9-0.1-3.2-0.3-4.1c-0.1-0.5-0.3-0.9-0.7-1.2s-0.7-0.5-1.2-0.5
		c-1.4-0.2-3.6-0.2-6.5-0.2c-2.9,0-5.1,0.1-6.5,0.2c-0.5,0.1-0.9,0.2-1.2,0.5c-0.3,0.3-0.6,0.7-0.7,1.2c-0.2,0.9-0.3,2.3-0.3,4.1
		c0,1.9,0.1,3.2,0.3,4.1c0.1,0.5,0.3,0.8,0.7,1.2c0.3,0.3,0.7,0.5,1.2,0.6c1.4,0.2,3.6,0.2,6.5,0.2c2.9,0,5.1-0.1,6.5-0.2
		c0.5-0.1,0.8-0.2,1.2-0.6c0.3-0.3,0.6-0.7,0.7-1.2C88.9,35,89,33.6,89,31.7z M77,21.5l1.4-4.7h-1.2l-0.8,3.1l-0.8-3.1h-1.2l0.4,1.1
		c0,0,0.1,0.4,0.4,1.1c0.4,1.1,0.6,1.9,0.7,2.5v3.2H77V21.5L77,21.5z M81.6,22.7v-2.1c0-0.6-0.1-1.1-0.3-1.4
		c-0.3-0.4-0.7-0.6-1.2-0.6c-0.5,0-0.9,0.2-1.2,0.6c-0.2,0.3-0.3,0.8-0.3,1.4v2.1c0,0.6,0.1,1.1,0.3,1.4c0.3,0.4,0.7,0.6,1.2,0.6
		c0.5,0,0.9-0.2,1.2-0.6C81.5,23.8,81.6,23.4,81.6,22.7z M84.5,24.6h1.1v-5.8h-1.1v4.5c-0.2,0.3-0.5,0.5-0.7,0.5
		c-0.2,0-0.2-0.1-0.3-0.3c0,0,0-0.2,0-0.4v-4.3h-1.1v4.6c0,0.4,0,0.7,0.1,0.9c0.1,0.3,0.3,0.4,0.7,0.4c0.4,0,0.8-0.2,1.2-0.7V24.6
		L84.5,24.6z"/>
	<line id="XMLID_4_" class="st1" x1="-17.5" y1="13.9" x2="-17.5" y2="40.6"/>
	<line id="XMLID_3_" class="st1" x1="47.7" y1="13.9" x2="47.7" y2="40.6"/>
</g>
</svg>
