<?xml version="1.0" encoding="utf-8"?>
<!-- Generator: Adobe Illustrator 19.0.0, SVG Export Plug-In . SVG Version: 6.00 Build 0)  -->
<svg version="1.1" id="Layer_1" xmlns="http://www.w3.org/2000/svg" xmlns:xlink="http://www.w3.org/1999/xlink" x="0px" y="0px"
	 viewBox="-242 372.2 125.7 38" style="enable-background:new -242 372.2 125.7 38;" xml:space="preserve">
<style type="text/css">
	.st0{fill:#EF4136;}
	.st1{font-family:'MyriadPro-Regular';}
	.st2{font-size:22px;}
</style>
<polygon class="st0" points="-2382.9,616.4 -2499.9,616.4 -2441.4,521.4 -2441.4,521.4 "/>
<polygon class="st0" points="-1054.4,521.2 -936.4,521.2 -995.4,616.2 -995.4,616.2 "/>
<polygon class="st0" points="596.3,1072 534.7,1072 565.5,1022 565.5,1022 "/>
<polygon class="st0" points="2110.7,617.7 1993.7,617.7 2052.2,522.7 2052.2,522.7 "/>
<rect id="XMLID_1_" x="2258" y="1488.4" class="st0" width="147" height="43"/>
<polygon class="st0" points="-2386.9,2356.5 -2503.9,2356.5 -2445.4,2261.5 -2445.4,2261.5 "/>
<polygon class="st0" points="-2386.9,-1155.4 -2503.9,-1155.4 -2445.4,-1250.4 -2445.4,-1250.4 "/>
<polygon class="st0" points="-1000.4,-1704.5 -1117.4,-1704.5 -1058.9,-1799.5 -1058.9,-1799.5 "/>
<g id="XMLID_68_">
	<polygon id="XMLID_70_" class="st0" points="-125,372.2 -242,372.2 -183.5,277.2 -183.5,277.2 	"/>
	<text id="XMLID_69_" transform="matrix(1 0 0 1 -242 398.3919)" class="st0 st1 st2">TECH NEWS</text>
</g>
</svg>
